<svg width="32" height="32" viewBox="0 0 32 32" fill="none" xmlns="http://www.w3.org/2000/svg">
<path d="M26.6665 2.66669H5.33317C3.86041 2.66669 2.6665 3.86059 2.6665 5.33335V10.6667C2.6665 12.1394 3.86041 13.3334 5.33317 13.3334H26.6665C28.1393 13.3334 29.3332 12.1394 29.3332 10.6667V5.33335C29.3332 3.86059 28.1393 2.66669 26.6665 2.66669Z" stroke="black" stroke-width="2" stroke-linecap="round" stroke-linejoin="round"/>
<path d="M26.6665 18.6667H5.33317C3.86041 18.6667 2.6665 19.8606 2.6665 21.3334V26.6667C2.6665 28.1394 3.86041 29.3334 5.33317 29.3334H26.6665C28.1393 29.3334 29.3332 28.1394 29.3332 26.6667V21.3334C29.3332 19.8606 28.1393 18.6667 26.6665 18.6667Z" stroke="black" stroke-width="2" stroke-linecap="round" stroke-linejoin="round"/>
<path d="M8 8H8.01333" stroke="black" stroke-width="2" stroke-linecap="round" stroke-linejoin="round"/>
<path d="M8 24H8.01333" stroke="black" stroke-width="2" stroke-linecap="round" stroke-linejoin="round"/>
</svg>
